<?xml version="1.0" encoding="UTF-8"?>
<!DOCTYPE svg PUBLIC "-//W3C//DTD SVG 1.1//EN" "http://www.w3.org/Graphics/SVG/1.1/DTD/svg11.dtd">
<!-- Creator: CorelDRAW -->
<svg xmlns="http://www.w3.org/2000/svg" xml:space="preserve" width="18.7219mm" height="18.7219mm" version="1.1" style="shape-rendering:geometricPrecision; text-rendering:geometricPrecision; image-rendering:optimizeQuality; fill-rule:evenodd; clip-rule:evenodd"
viewBox="0 0 21.64 21.64"
 xmlns:xlink="http://www.w3.org/1999/xlink"
 xmlns:xodm="http://www.corel.com/coreldraw/odm/2003">
 <defs>
  <style type="text/css">
   <![CDATA[
    .fil0 {fill:#B4A274}
    .fil1 {fill:white}
    .fil2 {fill:white;fill-rule:nonzero}
   ]]>
  </style>
 </defs>
 <g id="Camada_x0020_1">
  <metadata id="CorelCorpID_0Corel-Layer"/>
  <g id="_2241595407904">
   <circle class="fil0" cx="10.82" cy="10.82" r="10.82"/>
   <g>
    <path class="fil1" d="M14.08 10.34c-0.21,-1.43 -1.34,-2.56 -2.78,-2.78 -0.16,-0.02 -0.32,-0.04 -0.48,-0.04 -1.81,0 -3.29,1.49 -3.29,3.29 0,1.81 1.49,3.29 3.29,3.29 1.81,0 3.29,-1.49 3.29,-3.29 0,-0.16 -0.01,-0.32 -0.04,-0.48zm-1.3 0.19c0.01,0.1 0.02,0.19 0.02,0.29 0,1.08 -0.89,1.98 -1.98,1.98 -1.08,0 -1.98,-0.89 -1.98,-1.98 0,-1.08 0.89,-1.98 1.98,-1.98 0.1,0 0.19,0.01 0.29,0.02 0.86,0.13 1.54,0.81 1.67,1.67zm0 0z"/>
    <path class="fil2" d="M15.1 7.22c0,0.02 -0,0.04 -0,0.07 -0,0.02 -0.01,0.04 -0.01,0.07 -0,0.02 -0.01,0.04 -0.02,0.06 -0.01,0.02 -0.01,0.04 -0.02,0.06 -0.01,0.02 -0.02,0.04 -0.03,0.06 -0.01,0.02 -0.02,0.04 -0.03,0.06 -0.01,0.02 -0.03,0.04 -0.04,0.05 -0.01,0.02 -0.03,0.03 -0.04,0.05 -0.02,0.02 -0.03,0.03 -0.05,0.04 -0.02,0.01 -0.03,0.03 -0.05,0.04 -0.02,0.01 -0.04,0.02 -0.06,0.03 -0.02,0.01 -0.04,0.02 -0.06,0.03 -0.02,0.01 -0.04,0.02 -0.06,0.02 -0.02,0.01 -0.04,0.01 -0.06,0.02 -0.02,0 -0.04,0.01 -0.07,0.01 -0.02,0 -0.04,0 -0.07,0 -0.02,0 -0.04,-0 -0.07,-0 -0.02,-0 -0.04,-0.01 -0.07,-0.01 -0.02,-0 -0.04,-0.01 -0.06,-0.02 -0.02,-0.01 -0.04,-0.01 -0.06,-0.02 -0.02,-0.01 -0.04,-0.02 -0.06,-0.03 -0.02,-0.01 -0.04,-0.02 -0.06,-0.03 -0.02,-0.01 -0.04,-0.03 -0.05,-0.04 -0.02,-0.01 -0.03,-0.03 -0.05,-0.04 -0.02,-0.02 -0.03,-0.03 -0.04,-0.05 -0.01,-0.02 -0.03,-0.04 -0.04,-0.05 -0.01,-0.02 -0.02,-0.04 -0.03,-0.06 -0.01,-0.02 -0.02,-0.04 -0.03,-0.06 -0.01,-0.02 -0.02,-0.04 -0.02,-0.06 -0.01,-0.02 -0.01,-0.04 -0.02,-0.06 -0,-0.02 -0.01,-0.04 -0.01,-0.07 -0,-0.02 -0,-0.04 -0,-0.07 0,-0.02 0,-0.04 0,-0.07 0,-0.02 0.01,-0.04 0.01,-0.07 0,-0.02 0.01,-0.04 0.02,-0.06 0.01,-0.02 0.01,-0.04 0.02,-0.06 0.01,-0.02 0.02,-0.04 0.03,-0.06 0.01,-0.02 0.02,-0.04 0.03,-0.06 0.01,-0.02 0.03,-0.04 0.04,-0.05 0.01,-0.02 0.03,-0.03 0.04,-0.05 0.02,-0.02 0.03,-0.03 0.05,-0.04 0.02,-0.01 0.03,-0.03 0.05,-0.04 0.02,-0.01 0.04,-0.02 0.06,-0.03 0.02,-0.01 0.04,-0.02 0.06,-0.03 0.02,-0.01 0.04,-0.02 0.06,-0.02 0.02,-0.01 0.04,-0.01 0.06,-0.02 0.02,-0 0.04,-0.01 0.07,-0.01 0.02,-0 0.04,-0 0.07,-0 0.02,0 0.04,0 0.07,0 0.02,0 0.04,0.01 0.07,0.01 0.02,0 0.04,0.01 0.06,0.02 0.02,0.01 0.04,0.01 0.06,0.02 0.02,0.01 0.04,0.02 0.06,0.03 0.02,0.01 0.04,0.02 0.06,0.03 0.02,0.01 0.04,0.03 0.05,0.04 0.02,0.01 0.03,0.03 0.05,0.04 0.02,0.02 0.03,0.03 0.04,0.05 0.01,0.02 0.03,0.03 0.04,0.05 0.01,0.02 0.02,0.04 0.03,0.06 0.01,0.02 0.02,0.04 0.03,0.06 0.01,0.02 0.02,0.04 0.02,0.06 0.01,0.02 0.01,0.04 0.02,0.06 0,0.02 0.01,0.04 0.01,0.07 0,0.02 0,0.04 0,0.07zm0 0z"/>
    <path class="fil1" d="M18.04 7.55c0,-2.18 -1.77,-3.95 -3.95,-3.95l-6.59 0c-2.18,0 -3.95,1.77 -3.95,3.95l0 6.59c0,2.18 1.77,3.95 3.95,3.95l6.59 0c2.18,0 3.95,-1.77 3.95,-3.95l0 -6.59zm-1.32 0l0 6.59c0,1.45 -1.18,2.64 -2.64,2.64 0,0 -6.59,0 -6.59,0 -1.45,0 -2.64,-1.18 -2.64,-2.64l0 -6.59c0,-1.45 1.18,-2.64 2.64,-2.64l6.59 0c1.45,0 2.64,1.18 2.64,2.64zm0 0z"/>
   </g>
  </g>
 </g>
</svg>
